<mxfile host="app.diagrams.net" modified="2021-03-28T15:49:11.900Z" agent="5.0 (X11; Linux x86_64) AppleWebKit/537.36 (KHTML, like Gecko) Chrome/89.0.4389.72 Safari/537.36" etag="l_2uWSQI4S_VsWWytMam" version="14.5.1" type="github">
  <diagram name="AuAu" id="e7e014a7-5840-1c2e-5031-d8a46d1fe8dd">
    <mxGraphModel dx="3809" dy="898" grid="1" gridSize="10" guides="1" tooltips="1" connect="1" arrows="1" fold="1" page="1" pageScale="1" pageWidth="1169" pageHeight="826" background="#F1FAEE" math="0" shadow="0">
      <root>
        <mxCell id="0" />
        <mxCell id="1" parent="0" />
        <mxCell id="uoU9AajrR2amF2qVdHtz-41" value="CLIENTES" style="whiteSpace=wrap;html=1;fillColor=#A8DADC;strokeColor=#457B9D;fontColor=#1D3557;rounded=1;" parent="1" vertex="1">
          <mxGeometry x="-160" y="135" width="120" height="60" as="geometry" />
        </mxCell>
        <mxCell id="uoU9AajrR2amF2qVdHtz-42" value="PETS" style="whiteSpace=wrap;html=1;fillColor=#A8DADC;strokeColor=#457B9D;fontColor=#1D3557;rounded=1;" parent="1" vertex="1">
          <mxGeometry x="800" y="130" width="120" height="60" as="geometry" />
        </mxCell>
        <mxCell id="uoU9AajrR2amF2qVdHtz-43" value="FUNCIONÁRIOS" style="whiteSpace=wrap;html=1;fillColor=#A8DADC;strokeColor=#457B9D;fontColor=#1D3557;rounded=1;" parent="1" vertex="1">
          <mxGeometry x="-195" y="750" width="120" height="60" as="geometry" />
        </mxCell>
        <mxCell id="uoU9AajrR2amF2qVdHtz-81" style="edgeStyle=orthogonalEdgeStyle;orthogonalLoop=1;jettySize=auto;html=1;exitX=1;exitY=0.5;exitDx=0;exitDy=0;entryX=0;entryY=0.25;entryDx=0;entryDy=0;strokeColor=#457B9D;fontColor=#1D3557;labelBackgroundColor=#F1FAEE;" parent="1" source="uoU9AajrR2amF2qVdHtz-44" target="uoU9AajrR2amF2qVdHtz-41" edge="1">
          <mxGeometry relative="1" as="geometry" />
        </mxCell>
        <mxCell id="uoU9AajrR2amF2qVdHtz-44" value="Nome" style="ellipse;whiteSpace=wrap;html=1;fillColor=#A8DADC;strokeColor=#457B9D;fontColor=#1D3557;rounded=1;" parent="1" vertex="1">
          <mxGeometry x="-270" y="25" width="80" height="50" as="geometry" />
        </mxCell>
        <mxCell id="uoU9AajrR2amF2qVdHtz-82" style="edgeStyle=orthogonalEdgeStyle;orthogonalLoop=1;jettySize=auto;html=1;exitX=0.5;exitY=1;exitDx=0;exitDy=0;entryX=0.5;entryY=0;entryDx=0;entryDy=0;strokeColor=#457B9D;fontColor=#1D3557;labelBackgroundColor=#F1FAEE;" parent="1" source="uoU9AajrR2amF2qVdHtz-45" target="uoU9AajrR2amF2qVdHtz-41" edge="1">
          <mxGeometry relative="1" as="geometry" />
        </mxCell>
        <mxCell id="uoU9AajrR2amF2qVdHtz-45" value="&lt;u&gt;CPF&lt;/u&gt;" style="ellipse;whiteSpace=wrap;html=1;fillColor=#A8DADC;strokeColor=#457B9D;fontColor=#1D3557;rounded=1;" parent="1" vertex="1">
          <mxGeometry x="-150" y="20" width="80" height="50" as="geometry" />
        </mxCell>
        <mxCell id="uoU9AajrR2amF2qVdHtz-80" style="edgeStyle=orthogonalEdgeStyle;orthogonalLoop=1;jettySize=auto;html=1;exitX=1;exitY=0.5;exitDx=0;exitDy=0;entryX=0;entryY=0.75;entryDx=0;entryDy=0;strokeColor=#457B9D;fontColor=#1D3557;labelBackgroundColor=#F1FAEE;" parent="1" source="uoU9AajrR2amF2qVdHtz-48" target="uoU9AajrR2amF2qVdHtz-41" edge="1">
          <mxGeometry relative="1" as="geometry" />
        </mxCell>
        <mxCell id="uoU9AajrR2amF2qVdHtz-48" value="Endereço" style="ellipse;whiteSpace=wrap;html=1;fillColor=#A8DADC;strokeColor=#457B9D;fontColor=#1D3557;rounded=1;" parent="1" vertex="1">
          <mxGeometry x="-280" y="145" width="80" height="50" as="geometry" />
        </mxCell>
        <mxCell id="uoU9AajrR2amF2qVdHtz-77" style="edgeStyle=orthogonalEdgeStyle;orthogonalLoop=1;jettySize=auto;html=1;exitX=1;exitY=0.5;exitDx=0;exitDy=0;entryX=0;entryY=0.5;entryDx=0;entryDy=0;strokeColor=#457B9D;fontColor=#1D3557;labelBackgroundColor=#F1FAEE;" parent="1" source="uoU9AajrR2amF2qVdHtz-49" target="uoU9AajrR2amF2qVdHtz-48" edge="1">
          <mxGeometry relative="1" as="geometry" />
        </mxCell>
        <mxCell id="uoU9AajrR2amF2qVdHtz-49" value="Rua" style="ellipse;whiteSpace=wrap;html=1;fillColor=#A8DADC;strokeColor=#457B9D;fontColor=#1D3557;rounded=1;" parent="1" vertex="1">
          <mxGeometry x="-400" y="115" width="80" height="50" as="geometry" />
        </mxCell>
        <mxCell id="uoU9AajrR2amF2qVdHtz-78" style="edgeStyle=orthogonalEdgeStyle;orthogonalLoop=1;jettySize=auto;html=1;exitX=1;exitY=0.5;exitDx=0;exitDy=0;entryX=0;entryY=1;entryDx=0;entryDy=0;strokeColor=#457B9D;fontColor=#1D3557;labelBackgroundColor=#F1FAEE;" parent="1" source="uoU9AajrR2amF2qVdHtz-50" target="uoU9AajrR2amF2qVdHtz-48" edge="1">
          <mxGeometry relative="1" as="geometry" />
        </mxCell>
        <mxCell id="uoU9AajrR2amF2qVdHtz-50" value="Bairro" style="ellipse;whiteSpace=wrap;html=1;fillColor=#A8DADC;strokeColor=#457B9D;fontColor=#1D3557;rounded=1;" parent="1" vertex="1">
          <mxGeometry x="-390" y="185" width="80" height="50" as="geometry" />
        </mxCell>
        <mxCell id="uoU9AajrR2amF2qVdHtz-79" style="edgeStyle=orthogonalEdgeStyle;orthogonalLoop=1;jettySize=auto;html=1;exitX=0.5;exitY=0;exitDx=0;exitDy=0;entryX=0.5;entryY=1;entryDx=0;entryDy=0;strokeColor=#457B9D;fontColor=#1D3557;labelBackgroundColor=#F1FAEE;" parent="1" source="uoU9AajrR2amF2qVdHtz-51" target="uoU9AajrR2amF2qVdHtz-48" edge="1">
          <mxGeometry relative="1" as="geometry" />
        </mxCell>
        <mxCell id="uoU9AajrR2amF2qVdHtz-51" value="Número" style="ellipse;whiteSpace=wrap;html=1;fillColor=#A8DADC;strokeColor=#457B9D;fontColor=#1D3557;rounded=1;" parent="1" vertex="1">
          <mxGeometry x="-340" y="245" width="80" height="50" as="geometry" />
        </mxCell>
        <mxCell id="uoU9AajrR2amF2qVdHtz-83" style="edgeStyle=orthogonalEdgeStyle;orthogonalLoop=1;jettySize=auto;html=1;exitX=0.5;exitY=1;exitDx=0;exitDy=0;strokeColor=#457B9D;fontColor=#1D3557;labelBackgroundColor=#F1FAEE;" parent="1" source="uoU9AajrR2amF2qVdHtz-53" edge="1">
          <mxGeometry relative="1" as="geometry">
            <mxPoint x="-50" y="145" as="targetPoint" />
          </mxGeometry>
        </mxCell>
        <mxCell id="uoU9AajrR2amF2qVdHtz-53" value="Telefone" style="ellipse;html=1;shape=endState;fillColor=#A8DADC;strokeColor=#457B9D;shadow=0;fontColor=#1D3557;rounded=1;" parent="1" vertex="1">
          <mxGeometry x="-30" y="15" width="110" height="60" as="geometry" />
        </mxCell>
        <mxCell id="uoU9AajrR2amF2qVdHtz-90" style="edgeStyle=orthogonalEdgeStyle;orthogonalLoop=1;jettySize=auto;html=1;exitX=1;exitY=1;exitDx=0;exitDy=0;entryX=0.75;entryY=0;entryDx=0;entryDy=0;strokeColor=#457B9D;fontColor=#1D3557;labelBackgroundColor=#F1FAEE;" parent="1" source="uoU9AajrR2amF2qVdHtz-56" target="uoU9AajrR2amF2qVdHtz-42" edge="1">
          <mxGeometry relative="1" as="geometry" />
        </mxCell>
        <mxCell id="uoU9AajrR2amF2qVdHtz-56" value="Peso" style="ellipse;whiteSpace=wrap;html=1;shadow=0;strokeColor=#457B9D;fillColor=#A8DADC;fontColor=#1D3557;rounded=1;" parent="1" vertex="1">
          <mxGeometry x="830" y="15" width="110" height="45" as="geometry" />
        </mxCell>
        <mxCell id="uoU9AajrR2amF2qVdHtz-91" style="edgeStyle=orthogonalEdgeStyle;orthogonalLoop=1;jettySize=auto;html=1;exitX=0;exitY=1;exitDx=0;exitDy=0;entryX=1;entryY=0.5;entryDx=0;entryDy=0;strokeColor=#457B9D;fontColor=#1D3557;labelBackgroundColor=#F1FAEE;" parent="1" source="uoU9AajrR2amF2qVdHtz-57" target="uoU9AajrR2amF2qVdHtz-42" edge="1">
          <mxGeometry relative="1" as="geometry">
            <mxPoint x="930" y="160" as="targetPoint" />
          </mxGeometry>
        </mxCell>
        <mxCell id="uoU9AajrR2amF2qVdHtz-57" value="Altura" style="ellipse;whiteSpace=wrap;html=1;shadow=0;strokeColor=#457B9D;fillColor=#A8DADC;fontColor=#1D3557;rounded=1;" parent="1" vertex="1">
          <mxGeometry x="960" y="30" width="110" height="50" as="geometry" />
        </mxCell>
        <mxCell id="uoU9AajrR2amF2qVdHtz-92" style="edgeStyle=orthogonalEdgeStyle;orthogonalLoop=1;jettySize=auto;html=1;exitX=0;exitY=1;exitDx=0;exitDy=0;entryX=1;entryY=0.75;entryDx=0;entryDy=0;strokeColor=#457B9D;fontColor=#1D3557;labelBackgroundColor=#F1FAEE;" parent="1" source="uoU9AajrR2amF2qVdHtz-58" target="uoU9AajrR2amF2qVdHtz-42" edge="1">
          <mxGeometry relative="1" as="geometry" />
        </mxCell>
        <mxCell id="uoU9AajrR2amF2qVdHtz-58" value="Nascimento" style="ellipse;whiteSpace=wrap;html=1;shadow=0;strokeColor=#457B9D;fillColor=#A8DADC;fontColor=#1D3557;rounded=1;" parent="1" vertex="1">
          <mxGeometry x="990" y="125" width="110" height="50" as="geometry" />
        </mxCell>
        <mxCell id="uoU9AajrR2amF2qVdHtz-93" style="edgeStyle=orthogonalEdgeStyle;orthogonalLoop=1;jettySize=auto;html=1;exitX=1;exitY=0;exitDx=0;exitDy=0;entryX=0;entryY=0.75;entryDx=0;entryDy=0;strokeColor=#457B9D;fontColor=#1D3557;labelBackgroundColor=#F1FAEE;" parent="1" source="uoU9AajrR2amF2qVdHtz-59" target="uoU9AajrR2amF2qVdHtz-42" edge="1">
          <mxGeometry relative="1" as="geometry" />
        </mxCell>
        <mxCell id="uoU9AajrR2amF2qVdHtz-59" value="Espécie" style="ellipse;whiteSpace=wrap;html=1;shadow=0;strokeColor=#457B9D;fillColor=#A8DADC;fontColor=#1D3557;rounded=1;" parent="1" vertex="1">
          <mxGeometry x="670" y="180" width="110" height="50" as="geometry" />
        </mxCell>
        <mxCell id="uoU9AajrR2amF2qVdHtz-89" style="edgeStyle=orthogonalEdgeStyle;orthogonalLoop=1;jettySize=auto;html=1;exitX=1;exitY=1;exitDx=0;exitDy=0;entryX=0.25;entryY=0;entryDx=0;entryDy=0;strokeColor=#457B9D;fontColor=#1D3557;labelBackgroundColor=#F1FAEE;" parent="1" source="uoU9AajrR2amF2qVdHtz-60" target="uoU9AajrR2amF2qVdHtz-42" edge="1">
          <mxGeometry relative="1" as="geometry" />
        </mxCell>
        <mxCell id="uoU9AajrR2amF2qVdHtz-60" value="Raça" style="ellipse;whiteSpace=wrap;html=1;shadow=0;strokeColor=#457B9D;fillColor=#A8DADC;fontColor=#1D3557;rounded=1;" parent="1" vertex="1">
          <mxGeometry x="730" y="40" width="90" height="50" as="geometry" />
        </mxCell>
        <mxCell id="uoU9AajrR2amF2qVdHtz-88" style="edgeStyle=orthogonalEdgeStyle;orthogonalLoop=1;jettySize=auto;html=1;exitX=1;exitY=1;exitDx=0;exitDy=0;entryX=0;entryY=0.25;entryDx=0;entryDy=0;strokeColor=#457B9D;fontColor=#1D3557;labelBackgroundColor=#F1FAEE;" parent="1" source="uoU9AajrR2amF2qVdHtz-61" target="uoU9AajrR2amF2qVdHtz-42" edge="1">
          <mxGeometry relative="1" as="geometry" />
        </mxCell>
        <mxCell id="uoU9AajrR2amF2qVdHtz-61" value="&lt;u&gt;Nome&lt;/u&gt;" style="ellipse;whiteSpace=wrap;html=1;shadow=0;strokeColor=#457B9D;fillColor=#A8DADC;fontColor=#1D3557;rounded=1;" parent="1" vertex="1">
          <mxGeometry x="660" y="100" width="90" height="50" as="geometry" />
        </mxCell>
        <mxCell id="uoU9AajrR2amF2qVdHtz-112" style="edgeStyle=orthogonalEdgeStyle;orthogonalLoop=1;jettySize=auto;html=1;exitX=1;exitY=0.5;exitDx=0;exitDy=0;entryX=0.25;entryY=0;entryDx=0;entryDy=0;strokeColor=#457B9D;fontColor=#1D3557;labelBackgroundColor=#F1FAEE;" parent="1" source="uoU9AajrR2amF2qVdHtz-66" target="uoU9AajrR2amF2qVdHtz-43" edge="1">
          <mxGeometry relative="1" as="geometry" />
        </mxCell>
        <mxCell id="uoU9AajrR2amF2qVdHtz-66" value="Salário" style="ellipse;whiteSpace=wrap;html=1;shadow=0;strokeColor=#457B9D;fillColor=#A8DADC;fontColor=#1D3557;rounded=1;" parent="1" vertex="1">
          <mxGeometry x="-330" y="661.5" width="100" height="49" as="geometry" />
        </mxCell>
        <mxCell id="uoU9AajrR2amF2qVdHtz-104" style="edgeStyle=orthogonalEdgeStyle;orthogonalLoop=1;jettySize=auto;html=1;exitX=0;exitY=0.5;exitDx=0;exitDy=0;entryX=1;entryY=0.5;entryDx=0;entryDy=0;strokeColor=#457B9D;fontColor=#1D3557;labelBackgroundColor=#F1FAEE;" parent="1" source="uoU9AajrR2amF2qVdHtz-68" target="uoU9AajrR2amF2qVdHtz-43" edge="1">
          <mxGeometry relative="1" as="geometry" />
        </mxCell>
        <mxCell id="uoU9AajrR2amF2qVdHtz-68" value="&lt;u&gt;CPF&lt;/u&gt;" style="ellipse;whiteSpace=wrap;html=1;shadow=0;strokeColor=#457B9D;fillColor=#A8DADC;fontColor=#1D3557;rounded=1;" parent="1" vertex="1">
          <mxGeometry x="-35" y="745" width="100" height="50" as="geometry" />
        </mxCell>
        <mxCell id="uoU9AajrR2amF2qVdHtz-103" style="edgeStyle=orthogonalEdgeStyle;orthogonalLoop=1;jettySize=auto;html=1;exitX=0.5;exitY=1;exitDx=0;exitDy=0;strokeColor=#457B9D;fontColor=#1D3557;labelBackgroundColor=#F1FAEE;" parent="1" source="uoU9AajrR2amF2qVdHtz-69" target="uoU9AajrR2amF2qVdHtz-43" edge="1">
          <mxGeometry relative="1" as="geometry" />
        </mxCell>
        <mxCell id="uoU9AajrR2amF2qVdHtz-69" value="Função" style="ellipse;whiteSpace=wrap;html=1;shadow=0;strokeColor=#457B9D;fillColor=#A8DADC;fontColor=#1D3557;rounded=1;" parent="1" vertex="1">
          <mxGeometry x="-195" y="620" width="90" height="52" as="geometry" />
        </mxCell>
        <mxCell id="uoU9AajrR2amF2qVdHtz-102" style="edgeStyle=orthogonalEdgeStyle;orthogonalLoop=1;jettySize=auto;html=1;exitX=0;exitY=1;exitDx=0;exitDy=0;entryX=0.75;entryY=0;entryDx=0;entryDy=0;strokeColor=#457B9D;fontColor=#1D3557;labelBackgroundColor=#F1FAEE;" parent="1" source="uoU9AajrR2amF2qVdHtz-70" target="uoU9AajrR2amF2qVdHtz-43" edge="1">
          <mxGeometry relative="1" as="geometry" />
        </mxCell>
        <mxCell id="uoU9AajrR2amF2qVdHtz-70" value="Nome" style="ellipse;whiteSpace=wrap;html=1;shadow=0;strokeColor=#457B9D;fillColor=#A8DADC;fontColor=#1D3557;rounded=1;" parent="1" vertex="1">
          <mxGeometry x="-75" y="640" width="110" height="50" as="geometry" />
        </mxCell>
        <mxCell id="uoU9AajrR2amF2qVdHtz-71" value="PRODUTOS" style="whiteSpace=wrap;html=1;shadow=0;strokeColor=#457B9D;fillColor=#A8DADC;fontColor=#1D3557;rounded=1;" parent="1" vertex="1">
          <mxGeometry x="-620" y="561" width="120" height="60" as="geometry" />
        </mxCell>
        <mxCell id="uoU9AajrR2amF2qVdHtz-138" style="edgeStyle=orthogonalEdgeStyle;orthogonalLoop=1;jettySize=auto;html=1;exitX=0;exitY=1;exitDx=0;exitDy=0;entryX=1;entryY=0.5;entryDx=0;entryDy=0;strokeColor=#457B9D;fontColor=#1D3557;labelBackgroundColor=#F1FAEE;" parent="1" target="uoU9AajrR2amF2qVdHtz-71" edge="1">
          <mxGeometry relative="1" as="geometry">
            <mxPoint x="-441.46029343656164" y="555.3001333802554" as="sourcePoint" />
          </mxGeometry>
        </mxCell>
        <mxCell id="uoU9AajrR2amF2qVdHtz-72" value="Descrição" style="ellipse;whiteSpace=wrap;html=1;shadow=0;strokeColor=#457B9D;fillColor=#A8DADC;fontColor=#1D3557;rounded=1;" parent="1" vertex="1">
          <mxGeometry x="-455" y="527.5" width="90" height="40" as="geometry" />
        </mxCell>
        <mxCell id="uoU9AajrR2amF2qVdHtz-118" style="edgeStyle=orthogonalEdgeStyle;orthogonalLoop=1;jettySize=auto;html=1;exitX=0.5;exitY=1;exitDx=0;exitDy=0;entryX=1;entryY=1;entryDx=0;entryDy=0;strokeColor=#457B9D;fontColor=#1D3557;labelBackgroundColor=#F1FAEE;" parent="1" source="uoU9AajrR2amF2qVdHtz-73" target="uoU9AajrR2amF2qVdHtz-71" edge="1">
          <mxGeometry relative="1" as="geometry">
            <mxPoint x="-520" y="558" as="targetPoint" />
          </mxGeometry>
        </mxCell>
        <mxCell id="uoU9AajrR2amF2qVdHtz-73" value="&lt;u&gt;Marca&lt;/u&gt;" style="ellipse;whiteSpace=wrap;html=1;shadow=0;strokeColor=#457B9D;fillColor=#A8DADC;fontColor=#1D3557;rounded=1;" parent="1" vertex="1">
          <mxGeometry x="-450" y="590" width="80" height="50.5" as="geometry" />
        </mxCell>
        <mxCell id="uoU9AajrR2amF2qVdHtz-119" style="edgeStyle=orthogonalEdgeStyle;orthogonalLoop=1;jettySize=auto;html=1;exitX=1;exitY=0.5;exitDx=0;exitDy=0;strokeColor=#457B9D;fontColor=#1D3557;labelBackgroundColor=#F1FAEE;" parent="1" source="uoU9AajrR2amF2qVdHtz-74" edge="1">
          <mxGeometry relative="1" as="geometry">
            <mxPoint x="-600" y="628" as="targetPoint" />
          </mxGeometry>
        </mxCell>
        <mxCell id="uoU9AajrR2amF2qVdHtz-74" value="Vencimento" style="ellipse;whiteSpace=wrap;html=1;shadow=0;strokeColor=#457B9D;fillColor=#A8DADC;fontColor=#1D3557;rounded=1;" parent="1" vertex="1">
          <mxGeometry x="-720" y="659" width="90" height="47" as="geometry" />
        </mxCell>
        <mxCell id="uoU9AajrR2amF2qVdHtz-114" style="edgeStyle=orthogonalEdgeStyle;orthogonalLoop=1;jettySize=auto;html=1;exitX=1;exitY=0.5;exitDx=0;exitDy=0;entryX=0;entryY=0.75;entryDx=0;entryDy=0;strokeColor=#457B9D;fontColor=#1D3557;labelBackgroundColor=#F1FAEE;" parent="1" source="uoU9AajrR2amF2qVdHtz-75" target="uoU9AajrR2amF2qVdHtz-71" edge="1">
          <mxGeometry relative="1" as="geometry" />
        </mxCell>
        <mxCell id="uoU9AajrR2amF2qVdHtz-75" value="Categoria" style="ellipse;whiteSpace=wrap;html=1;shadow=0;strokeColor=#457B9D;fillColor=#A8DADC;fontColor=#1D3557;rounded=1;" parent="1" vertex="1">
          <mxGeometry x="-750" y="532.5" width="100" height="41.5" as="geometry" />
        </mxCell>
        <mxCell id="uoU9AajrR2amF2qVdHtz-117" style="edgeStyle=orthogonalEdgeStyle;orthogonalLoop=1;jettySize=auto;html=1;exitX=0.5;exitY=0;exitDx=0;exitDy=0;strokeColor=#457B9D;fontColor=#1D3557;labelBackgroundColor=#F1FAEE;" parent="1" source="uoU9AajrR2amF2qVdHtz-76" target="uoU9AajrR2amF2qVdHtz-71" edge="1">
          <mxGeometry relative="1" as="geometry" />
        </mxCell>
        <mxCell id="uoU9AajrR2amF2qVdHtz-76" value="Valor" style="ellipse;whiteSpace=wrap;html=1;shadow=0;strokeColor=#457B9D;fillColor=#A8DADC;fontColor=#1D3557;rounded=1;" parent="1" vertex="1">
          <mxGeometry x="-610" y="706" width="100" height="50" as="geometry" />
        </mxCell>
        <mxCell id="uoU9AajrR2amF2qVdHtz-105" style="edgeStyle=orthogonalEdgeStyle;orthogonalLoop=1;jettySize=auto;html=1;exitX=0;exitY=0.5;exitDx=0;exitDy=0;entryX=0.867;entryY=1.033;entryDx=0;entryDy=0;entryPerimeter=0;strokeColor=#457B9D;fontColor=#1D3557;labelBackgroundColor=#F1FAEE;" parent="1" source="uoU9AajrR2amF2qVdHtz-96" target="uoU9AajrR2amF2qVdHtz-43" edge="1">
          <mxGeometry relative="1" as="geometry" />
        </mxCell>
        <mxCell id="uoU9AajrR2amF2qVdHtz-96" value="Telefone" style="ellipse;html=1;shape=endState;fillColor=#A8DADC;strokeColor=#457B9D;shadow=0;fontColor=#1D3557;rounded=1;" parent="1" vertex="1">
          <mxGeometry x="-65" y="818" width="110" height="60" as="geometry" />
        </mxCell>
        <mxCell id="uoU9AajrR2amF2qVdHtz-106" style="edgeStyle=orthogonalEdgeStyle;orthogonalLoop=1;jettySize=auto;html=1;exitX=0.5;exitY=0;exitDx=0;exitDy=0;entryX=0.5;entryY=1;entryDx=0;entryDy=0;strokeColor=#457B9D;fontColor=#1D3557;labelBackgroundColor=#F1FAEE;" parent="1" source="uoU9AajrR2amF2qVdHtz-97" target="uoU9AajrR2amF2qVdHtz-43" edge="1">
          <mxGeometry relative="1" as="geometry">
            <mxPoint x="-135" y="820" as="targetPoint" />
          </mxGeometry>
        </mxCell>
        <mxCell id="uoU9AajrR2amF2qVdHtz-97" value="Endereço" style="ellipse;whiteSpace=wrap;html=1;fillColor=#A8DADC;strokeColor=#457B9D;fontColor=#1D3557;rounded=1;" parent="1" vertex="1">
          <mxGeometry x="-175" y="850" width="80" height="50" as="geometry" />
        </mxCell>
        <mxCell id="uoU9AajrR2amF2qVdHtz-109" style="edgeStyle=orthogonalEdgeStyle;orthogonalLoop=1;jettySize=auto;html=1;exitX=0;exitY=0;exitDx=0;exitDy=0;entryX=1;entryY=1;entryDx=0;entryDy=0;strokeColor=#457B9D;fontColor=#1D3557;labelBackgroundColor=#F1FAEE;" parent="1" source="uoU9AajrR2amF2qVdHtz-98" target="uoU9AajrR2amF2qVdHtz-97" edge="1">
          <mxGeometry relative="1" as="geometry" />
        </mxCell>
        <mxCell id="uoU9AajrR2amF2qVdHtz-98" value="Rua" style="ellipse;whiteSpace=wrap;html=1;fillColor=#A8DADC;strokeColor=#457B9D;fontColor=#1D3557;rounded=1;" parent="1" vertex="1">
          <mxGeometry x="-85" y="920" width="80" height="50" as="geometry" />
        </mxCell>
        <mxCell id="uoU9AajrR2amF2qVdHtz-108" style="edgeStyle=orthogonalEdgeStyle;orthogonalLoop=1;jettySize=auto;html=1;exitX=0.5;exitY=0;exitDx=0;exitDy=0;entryX=0.5;entryY=1;entryDx=0;entryDy=0;strokeColor=#457B9D;fontColor=#1D3557;labelBackgroundColor=#F1FAEE;" parent="1" source="uoU9AajrR2amF2qVdHtz-99" target="uoU9AajrR2amF2qVdHtz-97" edge="1">
          <mxGeometry relative="1" as="geometry" />
        </mxCell>
        <mxCell id="uoU9AajrR2amF2qVdHtz-99" value="Bairro" style="ellipse;whiteSpace=wrap;html=1;fillColor=#A8DADC;strokeColor=#457B9D;fontColor=#1D3557;rounded=1;" parent="1" vertex="1">
          <mxGeometry x="-185" y="940" width="80" height="50" as="geometry" />
        </mxCell>
        <mxCell id="uoU9AajrR2amF2qVdHtz-107" style="edgeStyle=orthogonalEdgeStyle;orthogonalLoop=1;jettySize=auto;html=1;exitX=1;exitY=0;exitDx=0;exitDy=0;entryX=0;entryY=1;entryDx=0;entryDy=0;strokeColor=#457B9D;fontColor=#1D3557;labelBackgroundColor=#F1FAEE;" parent="1" source="uoU9AajrR2amF2qVdHtz-100" target="uoU9AajrR2amF2qVdHtz-97" edge="1">
          <mxGeometry relative="1" as="geometry" />
        </mxCell>
        <mxCell id="uoU9AajrR2amF2qVdHtz-100" value="Número" style="ellipse;whiteSpace=wrap;html=1;fillColor=#A8DADC;strokeColor=#457B9D;fontColor=#1D3557;rounded=1;" parent="1" vertex="1">
          <mxGeometry x="-295" y="900" width="80" height="50" as="geometry" />
        </mxCell>
        <mxCell id="uoU9AajrR2amF2qVdHtz-120" value="SERVIÇOS" style="whiteSpace=wrap;html=1;shadow=0;strokeColor=#457B9D;fillColor=#A8DADC;fontColor=#1D3557;rounded=1;" parent="1" vertex="1">
          <mxGeometry x="660" y="776" width="120" height="60" as="geometry" />
        </mxCell>
        <mxCell id="uoU9AajrR2amF2qVdHtz-126" style="edgeStyle=orthogonalEdgeStyle;orthogonalLoop=1;jettySize=auto;html=1;exitX=0;exitY=0.5;exitDx=0;exitDy=0;entryX=0.75;entryY=0;entryDx=0;entryDy=0;strokeColor=#457B9D;fontColor=#1D3557;labelBackgroundColor=#F1FAEE;" parent="1" source="uoU9AajrR2amF2qVdHtz-121" target="uoU9AajrR2amF2qVdHtz-120" edge="1">
          <mxGeometry relative="1" as="geometry" />
        </mxCell>
        <mxCell id="uoU9AajrR2amF2qVdHtz-121" value="&lt;u&gt;Nome&lt;/u&gt;" style="ellipse;whiteSpace=wrap;html=1;shadow=0;strokeColor=#457B9D;fillColor=#A8DADC;fontColor=#1D3557;rounded=1;" parent="1" vertex="1">
          <mxGeometry x="805" y="706" width="90" height="50" as="geometry" />
        </mxCell>
        <mxCell id="uoU9AajrR2amF2qVdHtz-125" style="edgeStyle=orthogonalEdgeStyle;orthogonalLoop=1;jettySize=auto;html=1;exitX=0;exitY=0.5;exitDx=0;exitDy=0;entryX=1;entryY=0.5;entryDx=0;entryDy=0;strokeColor=#457B9D;fontColor=#1D3557;labelBackgroundColor=#F1FAEE;" parent="1" source="uoU9AajrR2amF2qVdHtz-122" target="uoU9AajrR2amF2qVdHtz-120" edge="1">
          <mxGeometry relative="1" as="geometry" />
        </mxCell>
        <mxCell id="uoU9AajrR2amF2qVdHtz-122" value="Descrição" style="ellipse;whiteSpace=wrap;html=1;shadow=0;strokeColor=#457B9D;fillColor=#A8DADC;fontColor=#1D3557;rounded=1;" parent="1" vertex="1">
          <mxGeometry x="840" y="814" width="90" height="40" as="geometry" />
        </mxCell>
        <mxCell id="uoU9AajrR2amF2qVdHtz-124" style="edgeStyle=orthogonalEdgeStyle;orthogonalLoop=1;jettySize=auto;html=1;exitX=0.5;exitY=0;exitDx=0;exitDy=0;entryX=0.5;entryY=1;entryDx=0;entryDy=0;strokeColor=#457B9D;fontColor=#1D3557;labelBackgroundColor=#F1FAEE;" parent="1" source="uoU9AajrR2amF2qVdHtz-123" target="uoU9AajrR2amF2qVdHtz-120" edge="1">
          <mxGeometry relative="1" as="geometry" />
        </mxCell>
        <mxCell id="uoU9AajrR2amF2qVdHtz-123" value="Valor" style="ellipse;whiteSpace=wrap;html=1;shadow=0;strokeColor=#457B9D;fillColor=#A8DADC;fontColor=#1D3557;rounded=1;" parent="1" vertex="1">
          <mxGeometry x="720" y="870" width="100" height="50" as="geometry" />
        </mxCell>
        <mxCell id="uoU9AajrR2amF2qVdHtz-128" style="edgeStyle=orthogonalEdgeStyle;orthogonalLoop=1;jettySize=auto;html=1;exitX=0;exitY=0.5;exitDx=0;exitDy=0;entryX=1;entryY=0.25;entryDx=0;entryDy=0;strokeColor=#457B9D;fontColor=#1D3557;labelBackgroundColor=#F1FAEE;" parent="1" source="uoU9AajrR2amF2qVdHtz-127" target="uoU9AajrR2amF2qVdHtz-41" edge="1">
          <mxGeometry relative="1" as="geometry">
            <mxPoint x="-20" y="155.33333333333337" as="targetPoint" />
            <Array as="points">
              <mxPoint x="-40" y="160" />
            </Array>
          </mxGeometry>
        </mxCell>
        <mxCell id="uoU9AajrR2amF2qVdHtz-129" style="edgeStyle=orthogonalEdgeStyle;orthogonalLoop=1;jettySize=auto;html=1;exitX=1;exitY=0.5;exitDx=0;exitDy=0;entryX=0;entryY=0.5;entryDx=0;entryDy=0;strokeColor=#457B9D;fontColor=#1D3557;labelBackgroundColor=#F1FAEE;" parent="1" source="uoU9AajrR2amF2qVdHtz-127" target="uoU9AajrR2amF2qVdHtz-42" edge="1">
          <mxGeometry relative="1" as="geometry" />
        </mxCell>
        <mxCell id="uoU9AajrR2amF2qVdHtz-127" value="POSSUI" style="rhombus;whiteSpace=wrap;html=1;shadow=0;strokeColor=#457B9D;fillColor=#A8DADC;fontColor=#1D3557;rounded=1;" parent="1" vertex="1">
          <mxGeometry x="320" y="120" width="120" height="80" as="geometry" />
        </mxCell>
        <mxCell id="PasxMXEC_9DPVCOPdkUd-18" style="edgeStyle=orthogonalEdgeStyle;orthogonalLoop=1;jettySize=auto;html=1;exitX=0;exitY=1;exitDx=0;exitDy=0;strokeColor=#457B9D;fontColor=#1D3557;labelBackgroundColor=#F1FAEE;" edge="1" parent="1" source="uoU9AajrR2amF2qVdHtz-137">
          <mxGeometry relative="1" as="geometry">
            <mxPoint x="-560" y="560" as="targetPoint" />
          </mxGeometry>
        </mxCell>
        <mxCell id="PasxMXEC_9DPVCOPdkUd-19" style="edgeStyle=orthogonalEdgeStyle;orthogonalLoop=1;jettySize=auto;html=1;exitX=1;exitY=0;exitDx=0;exitDy=0;entryX=0;entryY=1;entryDx=0;entryDy=0;strokeColor=#457B9D;fontColor=#1D3557;labelBackgroundColor=#F1FAEE;" edge="1" parent="1" source="uoU9AajrR2amF2qVdHtz-137" target="uoU9AajrR2amF2qVdHtz-41">
          <mxGeometry relative="1" as="geometry" />
        </mxCell>
        <mxCell id="uoU9AajrR2amF2qVdHtz-137" value="COMPRA" style="rhombus;whiteSpace=wrap;html=1;shadow=0;strokeColor=#457B9D;fillColor=#A8DADC;fontColor=#1D3557;rounded=1;" parent="1" vertex="1">
          <mxGeometry x="-280" y="316.5" width="120" height="80" as="geometry" />
        </mxCell>
        <mxCell id="PasxMXEC_9DPVCOPdkUd-7" style="edgeStyle=orthogonalEdgeStyle;orthogonalLoop=1;jettySize=auto;html=1;exitX=0.5;exitY=1;exitDx=0;exitDy=0;entryX=0.883;entryY=-0.1;entryDx=0;entryDy=0;entryPerimeter=0;strokeColor=#457B9D;fontColor=#1D3557;labelBackgroundColor=#F1FAEE;" edge="1" parent="1" source="PasxMXEC_9DPVCOPdkUd-1" target="uoU9AajrR2amF2qVdHtz-43">
          <mxGeometry relative="1" as="geometry" />
        </mxCell>
        <mxCell id="PasxMXEC_9DPVCOPdkUd-8" style="edgeStyle=orthogonalEdgeStyle;orthogonalLoop=1;jettySize=auto;html=1;exitX=0.5;exitY=0;exitDx=0;exitDy=0;entryX=0.25;entryY=1;entryDx=0;entryDy=0;strokeColor=#457B9D;fontColor=#1D3557;labelBackgroundColor=#F1FAEE;" edge="1" parent="1" source="PasxMXEC_9DPVCOPdkUd-1" target="uoU9AajrR2amF2qVdHtz-41">
          <mxGeometry relative="1" as="geometry" />
        </mxCell>
        <mxCell id="PasxMXEC_9DPVCOPdkUd-1" value="ATENDE" style="rhombus;whiteSpace=wrap;html=1;fillColor=#A8DADC;strokeColor=#457B9D;fontColor=#1D3557;rounded=1;" vertex="1" parent="1">
          <mxGeometry x="-175" y="413" width="130" height="80" as="geometry" />
        </mxCell>
        <mxCell id="PasxMXEC_9DPVCOPdkUd-10" style="edgeStyle=orthogonalEdgeStyle;orthogonalLoop=1;jettySize=auto;html=1;exitX=1;exitY=0.5;exitDx=0;exitDy=0;entryX=0;entryY=0.5;entryDx=0;entryDy=0;strokeColor=#457B9D;fontColor=#1D3557;labelBackgroundColor=#F1FAEE;" edge="1" parent="1" source="PasxMXEC_9DPVCOPdkUd-9" target="uoU9AajrR2amF2qVdHtz-120">
          <mxGeometry relative="1" as="geometry">
            <mxPoint x="650" y="796" as="targetPoint" />
          </mxGeometry>
        </mxCell>
        <mxCell id="PasxMXEC_9DPVCOPdkUd-11" style="edgeStyle=orthogonalEdgeStyle;orthogonalLoop=1;jettySize=auto;html=1;exitX=0;exitY=0.5;exitDx=0;exitDy=0;entryX=1;entryY=0.75;entryDx=0;entryDy=0;strokeColor=#457B9D;fontColor=#1D3557;labelBackgroundColor=#F1FAEE;" edge="1" parent="1" source="PasxMXEC_9DPVCOPdkUd-9" target="uoU9AajrR2amF2qVdHtz-43">
          <mxGeometry relative="1" as="geometry" />
        </mxCell>
        <mxCell id="PasxMXEC_9DPVCOPdkUd-9" value="REALIZA" style="rhombus;whiteSpace=wrap;html=1;fillColor=#A8DADC;strokeColor=#457B9D;fontColor=#1D3557;rounded=1;" vertex="1" parent="1">
          <mxGeometry x="340" y="756" width="140" height="80" as="geometry" />
        </mxCell>
        <mxCell id="PasxMXEC_9DPVCOPdkUd-13" style="edgeStyle=orthogonalEdgeStyle;orthogonalLoop=1;jettySize=auto;html=1;exitX=0.5;exitY=0;exitDx=0;exitDy=0;entryX=0.25;entryY=1;entryDx=0;entryDy=0;strokeColor=#457B9D;fontColor=#1D3557;labelBackgroundColor=#F1FAEE;" edge="1" parent="1" source="PasxMXEC_9DPVCOPdkUd-12" target="uoU9AajrR2amF2qVdHtz-42">
          <mxGeometry relative="1" as="geometry" />
        </mxCell>
        <mxCell id="PasxMXEC_9DPVCOPdkUd-14" style="edgeStyle=orthogonalEdgeStyle;orthogonalLoop=1;jettySize=auto;html=1;exitX=0.5;exitY=1;exitDx=0;exitDy=0;entryX=0.25;entryY=0;entryDx=0;entryDy=0;strokeColor=#457B9D;fontColor=#1D3557;labelBackgroundColor=#F1FAEE;" edge="1" parent="1" source="PasxMXEC_9DPVCOPdkUd-12" target="uoU9AajrR2amF2qVdHtz-120">
          <mxGeometry relative="1" as="geometry" />
        </mxCell>
        <mxCell id="PasxMXEC_9DPVCOPdkUd-12" value="APLICAR" style="rhombus;whiteSpace=wrap;html=1;fillColor=#A8DADC;strokeColor=#457B9D;fontColor=#1D3557;rounded=1;" vertex="1" parent="1">
          <mxGeometry x="720" y="380" width="150" height="80" as="geometry" />
        </mxCell>
        <mxCell id="PasxMXEC_9DPVCOPdkUd-21" style="edgeStyle=orthogonalEdgeStyle;orthogonalLoop=1;jettySize=auto;html=1;exitX=1;exitY=1;exitDx=0;exitDy=0;entryX=0;entryY=0.25;entryDx=0;entryDy=0;strokeColor=#457B9D;fontColor=#1D3557;labelBackgroundColor=#F1FAEE;" edge="1" parent="1" source="PasxMXEC_9DPVCOPdkUd-20" target="uoU9AajrR2amF2qVdHtz-120">
          <mxGeometry relative="1" as="geometry">
            <Array as="points">
              <mxPoint x="525" y="457" />
              <mxPoint x="525" y="610" />
              <mxPoint x="660" y="610" />
            </Array>
          </mxGeometry>
        </mxCell>
        <mxCell id="PasxMXEC_9DPVCOPdkUd-22" style="edgeStyle=orthogonalEdgeStyle;orthogonalLoop=1;jettySize=auto;html=1;exitX=0;exitY=0.5;exitDx=0;exitDy=0;entryX=0.5;entryY=1;entryDx=0;entryDy=0;strokeColor=#457B9D;fontColor=#1D3557;labelBackgroundColor=#F1FAEE;" edge="1" parent="1" source="PasxMXEC_9DPVCOPdkUd-20" target="uoU9AajrR2amF2qVdHtz-41">
          <mxGeometry relative="1" as="geometry">
            <Array as="points">
              <mxPoint x="250" y="350" />
              <mxPoint x="-100" y="350" />
            </Array>
          </mxGeometry>
        </mxCell>
        <mxCell id="PasxMXEC_9DPVCOPdkUd-20" value="REQUISITA" style="rhombus;whiteSpace=wrap;html=1;fillColor=#A8DADC;strokeColor=#457B9D;fontColor=#1D3557;rounded=1;" vertex="1" parent="1">
          <mxGeometry x="250" y="396.5" width="140" height="80" as="geometry" />
        </mxCell>
      </root>
    </mxGraphModel>
  </diagram>
</mxfile>
